# xmcd
#
# Track frame offsets:
# 150
# 12749
# 25473
# 38404
# 53180
# 71848
# 85967
# 103810
# 117461
# 133292
# 145985
# 161136
# 177015
# 191708
# 208872
# 218393
#
# Disc length: 3087 seconds
#
#
# Revision: 0
# Processed by: cddbd v1.5.2PL0 Copyright (c) Steve Scherf et al.
# Submitted via: FreeRIP 2.943 
#
DISCID=f40c0d10
DTITLE=Francis Lopes - Francis Lopes Vol 13
DYEAR=2006
DGENRE=Forró
TTITLE0=E Tome Fórro
TTITLE1=Na Bundinha
TTITLE2=Levanta O Som Camelô
TTITLE3=É Hoje
TTITLE4=O Barquinho
TTITLE5=É Fogo
TTITLE6=Um Anjo
TTITLE7=Cancei De Ficar
TTITLE8=Pout-Pourrii - A) Vacilou - B) Vou Te Procurar
TTITLE9=Como É Bom Amar Voce
TTITLE10=Amor Impossível
TTITLE11=Gostosa
TTITLE12=Pode Me Bater
TTITLE13=Mexe O Bumbum
TTITLE14=Viagem Sem Fim
TTITLE15=Encaixa
EXTD=
EXTT0=
EXTT1=
EXTT2=
EXTT3=
EXTT4=
EXTT5=
EXTT6=
EXTT7=
EXTT8=
EXTT9=
EXTT10=
EXTT11=
EXTT12=
EXTT13=
EXTT14=
EXTT15=
PLAYORDER=
